<?xml version="1.0" encoding="UTF-8"?>
<svg id="Lager_1" data-name="Lager 1" xmlns="http://www.w3.org/2000/svg" viewBox="0 0 33.95 44.19">
  <defs>
    <style>
      .cls-1 {
        fill: #1d1d1b;
      }
    </style>
  </defs>
  <path class="cls-1" d="M11.04,14.18l-1.18-3.24h-5.76l-1.18,3.24H0L5.44,0h3.2l5.4,14.18h-3ZM6.98,3.06l-1.96,5.36h3.92l-1.96-5.36Z"/>
  <path class="cls-1" d="M30.87,14.18l-2.78-5.46h-1.44v5.46h-2.78V0h5.54c1.36,0,2.45.41,3.28,1.24.83.83,1.24,1.87,1.24,3.12,0,.99-.27,1.84-.81,2.55-.54.71-1.28,1.2-2.21,1.47l3.04,5.8h-3.08ZM26.65,6.34h2.24c.69,0,1.24-.18,1.63-.54.39-.36.59-.83.59-1.42s-.2-1.08-.59-1.44c-.39-.36-.94-.54-1.63-.54h-2.24v3.94Z"/>
  <path class="cls-1" d="M23.15,32.63h-4.48v11.56h-2.78v-11.56h-4.48v-2.62h11.74v2.62Z"/>
  <rect class="cls-1" y="20.79" width="33.95" height="2.62"/>
</svg>